<?xml version='1.0' encoding='UTF-8' standalone='no'?>
<!-- Created with Inkscape (http://www.inkscape.org/) -->
<svg xmlns="http://www.w3.org/2000/svg" width="82" version="1.1" gorn="0"  height="82" id="svg10171">
    <desc >
        <referenceFile >MicroView_PCB.svg</referenceFile>
    </desc>
    <defs  id="defs10173"/>
    <metadata  id="metadata10176">
        <rdf:RDF xmlns:rdf="http://www.w3.org/1999/02/22-rdf-syntax-ns#">
            <cc:Work xmlns:rdf="http://www.w3.org/1999/02/22-rdf-syntax-ns#" xmlns:cc="http://creativecommons.org/ns#" rdf:about="">
                <dc:format xmlns:dc="http://purl.org/dc/elements/1.1/">image/svg+xml</dc:format>
                <dc:type xmlns:rdf="http://www.w3.org/1999/02/22-rdf-syntax-ns#" rdf:resource="http://purl.org/dc/dcmitype/StillImage" xmlns:dc="http://purl.org/dc/elements/1.1/"/>
                <dc:title xmlns:dc="http://purl.org/dc/elements/1.1/"/>
            </cc:Work>
        </rdf:RDF>
    </metadata>
    <g  transform="translate(-13.945,-958.841)">
        <g >
            <g gorn="0.3.0.0"  id="layer1">
                <g gorn="0.3.0.0.0"  id="copper0">
                    <g gorn="0.3.0.0.0.0"  id="copper1">
                        <rect width="4.9499998" x="21.014999" y="965.91473" fill="none" gorn="0.3.0.0.0.0.0"  height="4.9499998" stroke="#ffbf00" id="rect10196" stroke-width="1.79999995"/>
                        <g  transform="matrix(0.09,0,0,0.09,18.045,962.98975)">
                            <g >
                                <circle fill="none" cx="60" gorn="0.3.0.0.0.0.1.0.0"  cy="60" stroke="#ffbf00" r="27.5" id="connector0pin" stroke-width="20" d="M 87.5,60 C 87.5,75.187831 75.187831,87.5 60,87.5 44.812169,87.5 32.5,75.187831 32.5,60 32.5,44.812169 44.812169,32.5 60,32.5 75.187831,32.5 87.5,44.812169 87.5,60 z"/>
                            </g>
                        </g>
                        <g  transform="matrix(0.09,0,0,0.09,18.045,962.98975)">
                            <g >
                                <circle fill="none" cx="60" gorn="0.3.0.0.0.0.2.0.0"  cy="160" stroke="#ffbf00" r="27.5" id="connector1pin" stroke-width="20" d="m 87.5,160 c 0,15.18783 -12.312169,27.5 -27.5,27.5 -15.187831,0 -27.5,-12.31217 -27.5,-27.5 0,-15.18783 12.312169,-27.5 27.5,-27.5 15.187831,0 27.5,12.31217 27.5,27.5 z"/>
                            </g>
                        </g>
                        <g  transform="matrix(0.09,0,0,0.09,18.045,962.98975)">
                            <g >
                                <circle fill="none" cx="60" gorn="0.3.0.0.0.0.3.0.0"  cy="260" stroke="#ffbf00" r="27.5" id="connector2pin" stroke-width="20" d="m 87.5,260 c 0,15.18783 -12.312169,27.5 -27.5,27.5 -15.187831,0 -27.5,-12.31217 -27.5,-27.5 0,-15.18783 12.312169,-27.5 27.5,-27.5 15.187831,0 27.5,12.31217 27.5,27.5 z"/>
                            </g>
                        </g>
                        <g  transform="matrix(0.09,0,0,0.09,18.045,962.98975)">
                            <g >
                                <circle fill="none" cx="60" gorn="0.3.0.0.0.0.4.0.0"  cy="360" stroke="#ffbf00" r="27.5" id="connector3pin" stroke-width="20" d="m 87.5,360 c 0,15.18783 -12.312169,27.5 -27.5,27.5 -15.187831,0 -27.5,-12.31217 -27.5,-27.5 0,-15.18783 12.312169,-27.5 27.5,-27.5 15.187831,0 27.5,12.31217 27.5,27.5 z"/>
                            </g>
                        </g>
                        <g  transform="matrix(0.09,0,0,0.09,18.045,962.98975)">
                            <g >
                                <circle fill="none" cx="60" gorn="0.3.0.0.0.0.5.0.0"  cy="460" stroke="#ffbf00" r="27.5" id="connector4pin" stroke-width="20" d="m 87.5,460 c 0,15.18783 -12.312169,27.5 -27.5,27.5 -15.187831,0 -27.5,-12.31217 -27.5,-27.5 0,-15.18783 12.312169,-27.5 27.5,-27.5 15.187831,0 27.5,12.31217 27.5,27.5 z"/>
                            </g>
                        </g>
                        <g  transform="matrix(0.09,0,0,0.09,18.045,962.98975)">
                            <g >
                                <circle fill="none" cx="60" gorn="0.3.0.0.0.0.6.0.0"  cy="560" stroke="#ffbf00" r="27.5" id="connector5pin" stroke-width="20" d="m 87.5,560 c 0,15.18783 -12.312169,27.5 -27.5,27.5 -15.187831,0 -27.5,-12.31217 -27.5,-27.5 0,-15.18783 12.312169,-27.5 27.5,-27.5 15.187831,0 27.5,12.31217 27.5,27.5 z"/>
                            </g>
                        </g>
                        <g  transform="matrix(0.09,0,0,0.09,18.045,962.98975)">
                            <g >
                                <circle fill="none" cx="60" gorn="0.3.0.0.0.0.7.0.0"  cy="660" stroke="#ffbf00" r="27.5" id="connector6pin" stroke-width="20" d="m 87.5,660 c 0,15.18783 -12.312169,27.5 -27.5,27.5 -15.187831,0 -27.5,-12.31217 -27.5,-27.5 0,-15.18783 12.312169,-27.5 27.5,-27.5 15.187831,0 27.5,12.31217 27.5,27.5 z"/>
                            </g>
                        </g>
                        <g  transform="matrix(0.09,0,0,0.09,18.135,963.03475)">
                            <g >
                                <circle fill="none" cx="60" gorn="0.3.0.0.0.0.8.0.0"  cy="760" stroke="#ffbf00" r="27.5" id="connector7pin" stroke-width="20" d="m 87.5,760 c 0,15.18783 -12.312169,27.5 -27.5,27.5 -15.187831,0 -27.5,-12.31217 -27.5,-27.5 0,-15.18783 12.312169,-27.5 27.5,-27.5 15.187831,0 27.5,12.31217 27.5,27.5 z"/>
                            </g>
                        </g>
                        <g  transform="matrix(0.09,0,0,0.09,54.045,963.03475)">
                            <g >
                                <circle fill="none" cx="360" gorn="0.3.0.0.0.0.9.0.0"  cy="60" stroke="#ffbf00" r="27.5" id="connector15pin" stroke-width="20" d="m 387.5,60 c 0,15.187831 -12.31217,27.5 -27.5,27.5 -15.18783,0 -27.5,-12.312169 -27.5,-27.5 0,-15.187831 12.31217,-27.5 27.5,-27.5 15.18783,0 27.5,12.312169 27.5,27.5 z"/>
                            </g>
                        </g>
                        <g  transform="matrix(0.09,0,0,0.09,54.045,963.03475)">
                            <g >
                                <circle fill="none" cx="360" gorn="0.3.0.0.0.0.10.0.0"  cy="160" stroke="#ffbf00" r="27.5" id="connector14pin" stroke-width="20" d="m 387.5,160 c 0,15.18783 -12.31217,27.5 -27.5,27.5 -15.18783,0 -27.5,-12.31217 -27.5,-27.5 0,-15.18783 12.31217,-27.5 27.5,-27.5 15.18783,0 27.5,12.31217 27.5,27.5 z"/>
                            </g>
                        </g>
                        <g  transform="matrix(0.09,0,0,0.09,54.045,963.03475)">
                            <g >
                                <circle fill="none" cx="360" gorn="0.3.0.0.0.0.11.0.0"  cy="260" stroke="#ffbf00" r="27.5" id="connector13pin" stroke-width="20" d="m 387.5,260 c 0,15.18783 -12.31217,27.5 -27.5,27.5 -15.18783,0 -27.5,-12.31217 -27.5,-27.5 0,-15.18783 12.31217,-27.5 27.5,-27.5 15.18783,0 27.5,12.31217 27.5,27.5 z"/>
                            </g>
                        </g>
                        <g  transform="matrix(0.09,0,0,0.09,54.045,963.03475)">
                            <g >
                                <circle fill="none" cx="360" gorn="0.3.0.0.0.0.12.0.0"  cy="360" stroke="#ffbf00" r="27.5" id="connector12pin" stroke-width="20" d="m 387.5,360 c 0,15.18783 -12.31217,27.5 -27.5,27.5 -15.18783,0 -27.5,-12.31217 -27.5,-27.5 0,-15.18783 12.31217,-27.5 27.5,-27.5 15.18783,0 27.5,12.31217 27.5,27.5 z"/>
                            </g>
                        </g>
                        <g  transform="matrix(0.09,0,0,0.09,54.045,963.03475)">
                            <g >
                                <circle fill="none" cx="360" gorn="0.3.0.0.0.0.13.0.0"  cy="460" stroke="#ffbf00" r="27.5" id="connector11pin" stroke-width="20" d="m 387.5,460 c 0,15.18783 -12.31217,27.5 -27.5,27.5 -15.18783,0 -27.5,-12.31217 -27.5,-27.5 0,-15.18783 12.31217,-27.5 27.5,-27.5 15.18783,0 27.5,12.31217 27.5,27.5 z"/>
                            </g>
                        </g>
                        <g  transform="matrix(0.09,0,0,0.09,54.045,963.03475)">
                            <g >
                                <circle fill="none" cx="360" gorn="0.3.0.0.0.0.14.0.0"  cy="560" stroke="#ffbf00" r="27.5" id="connector10pin" stroke-width="20" d="m 387.5,560 c 0,15.18783 -12.31217,27.5 -27.5,27.5 -15.18783,0 -27.5,-12.31217 -27.5,-27.5 0,-15.18783 12.31217,-27.5 27.5,-27.5 15.18783,0 27.5,12.31217 27.5,27.5 z"/>
                            </g>
                        </g>
                        <g  transform="matrix(0.09,0,0,0.09,54.045,963.03475)">
                            <g >
                                <circle fill="none" cx="360" gorn="0.3.0.0.0.0.15.0.0"  cy="660" stroke="#ffbf00" r="27.5" id="connector9pin" stroke-width="20" d="m 387.5,660 c 0,15.18783 -12.31217,27.5 -27.5,27.5 -15.18783,0 -27.5,-12.31217 -27.5,-27.5 0,-15.18783 12.31217,-27.5 27.5,-27.5 15.18783,0 27.5,12.31217 27.5,27.5 z"/>
                            </g>
                        </g>
                        <g  transform="matrix(0.09,0,0,0.09,54.045,963.03475)">
                            <g >
                                <circle fill="none" cx="360" gorn="0.3.0.0.0.0.16.0.0"  cy="760" stroke="#ffbf00" r="27.5" id="connector8pin" stroke-width="20" d="m 387.5,760 c 0,15.18783 -12.31217,27.5 -27.5,27.5 -15.18783,0 -27.5,-12.31217 -27.5,-27.5 0,-15.18783 12.31217,-27.5 27.5,-27.5 15.18783,0 27.5,12.31217 27.5,27.5 z"/>
                            </g>
                        </g>
                    </g>
                </g>
            </g>
        </g>
    </g>
</svg>
